<?xml version="1.0" encoding="UTF-8" standalone="no"?>
<!-- Created with Inkscape (http://www.inkscape.org/) -->

<svg
   xmlns:dc="http://purl.org/dc/elements/1.1/"
   xmlns:cc="http://creativecommons.org/ns#"
   xmlns:rdf="http://www.w3.org/1999/02/22-rdf-syntax-ns#"
   xmlns:svg="http://www.w3.org/2000/svg"
   xmlns="http://www.w3.org/2000/svg"
   xmlns:sodipodi="http://sodipodi.sourceforge.net/DTD/sodipodi-0.dtd"
   xmlns:inkscape="http://www.inkscape.org/namespaces/inkscape"
   version="1.1"
   id="svg2"
   xml:space="preserve"
   width="379.26666"
   height="233.01334"
   viewBox="0 0 379.26666 233.01334"
   sodipodi:docname="kovo.svg"
   inkscape:version="0.92.3 (2405546, 2018-03-11)"><metadata
     id="metadata8"><rdf:RDF><cc:Work
         rdf:about=""><dc:format>image/svg+xml</dc:format><dc:type
           rdf:resource="http://purl.org/dc/dcmitype/StillImage" /><dc:title></dc:title></cc:Work></rdf:RDF></metadata><defs
     id="defs6" /><sodipodi:namedview
     pagecolor="#ffffff"
     bordercolor="#666666"
     borderopacity="1"
     objecttolerance="10"
     gridtolerance="10"
     guidetolerance="10"
     inkscape:pageopacity="0"
     inkscape:pageshadow="2"
     inkscape:window-width="2560"
     inkscape:window-height="1361"
     id="namedview4"
     showgrid="false"
     inkscape:zoom="1.9880471"
     inkscape:cx="190.58025"
     inkscape:cy="96.739218"
     inkscape:window-x="-9"
     inkscape:window-y="-9"
     inkscape:window-maximized="1"
     inkscape:current-layer="g10" /><g
     id="g10"
     inkscape:groupmode="layer"
     inkscape:label="ink_ext_XXXXXX"
     transform="matrix(1.3333333,0,0,-1.3333333,0,233.01333)"><g
       id="g12"
       transform="scale(0.1)"><path
         d="m 512.461,70.5508 c 44.824,0 69.324,14 69.324,36.5192 0,23.852 -26.937,36.551 -69.324,36.551 h -49.75 V 70.5508 Z m 0,85.3082 c 56.34,0 89.984,-18.277 89.984,-48.789 0,-30.2497 -33.644,-48.7106 -89.984,-48.7106 h -49.75 V 0 h -19.914 v 155.859 h 69.664"
         style="fill:#444142;fill-opacity:1;fill-rule:nonzero;stroke:none"
         id="path14"
         inkscape:connector-curvature="0" /><path
         d="m 892.836,71.4492 c 44.477,0 68.297,14.9414 68.297,36.3128 0,22.91 -26.274,35.859 -68.297,35.859 H 842.055 V 71.4492 Z M 966.754,0 908.262,60.8008 c -5.278,-0.461 -10.828,-0.6797 -16.449,-0.6797 H 842.055 V 0 h -19.91 v 155.859 h 69.668 c 55.992,0 89.98,-18.488 89.98,-48.097 0,-22.7425 -19.637,-38.3206 -53.215,-44.512 L 989.508,0 h -22.754"
         style="fill:#444142;fill-opacity:1;fill-rule:nonzero;stroke:none"
         id="path16"
         inkscape:connector-curvature="0" /><path
         d="m 1363.57,56.7813 -45.16,65.6797 c -5.23,8.031 -10.85,18.031 -11.19,18.031 h -0.38 c -0.35,0 -5.9,-10 -11.18,-18.031 L 1250.5,56.7813 Z m 8.06,-11.3516 H 1242.45 L 1211.3,0 h -22.07 l 108.87,155.859 h 17.88 L 1424.85,0 h -22.03 l -31.19,45.4297"
         style="fill:#444142;fill-opacity:1;fill-rule:nonzero;stroke:none"
         id="path18"
         inkscape:connector-curvature="0" /><path
         d="M 1825.17,155.859 V 0 h -20.31 V 75.2383 H 1659.18 V 0 h -19.91 v 155.859 h 19.91 V 87.5 h 145.68 v 68.359 h 20.31"
         style="fill:#444142;fill-opacity:1;fill-rule:nonzero;stroke:none"
         id="path20"
         inkscape:connector-curvature="0" /><path
         d="m 2213.94,56.7813 -45.16,65.6797 c -5.21,8.031 -10.83,18.031 -11.17,18.031 h -0.41 c -0.34,0 -5.9,-10 -11.17,-18.031 L 2100.86,56.7813 Z M 2222,45.4297 H 2092.81 L 2061.67,0 h -22.08 l 108.87,155.859 h 17.88 L 2275.21,0 h -22.02 L 2222,45.4297"
         style="fill:#444142;fill-opacity:1;fill-rule:nonzero;stroke:none"
         id="path22"
         inkscape:connector-curvature="0" /><path
         d="m 1897.81,755.539 c -7.07,0 -13.01,0.852 -19.76,1.106 -87.72,-188.805 -220.36,-387.403 -322.07,-387.403 -12.95,0 -24.9,10.938 -24.9,36.84 0,99.977 72.88,258.449 158.01,405.563 -37.45,26.093 -62.02,57.5 -77.12,86.726 -5.17,9.953 -8.91,20.168 -12.59,30.422 -18.07,-9.824 -34.65,-23.789 -48.38,-43.75 -78.69,-112.539 -192.17,-353.512 -192.17,-498.863 0,-60.77 29.87,-112.5 94.6,-112.5 214.1,0 475.74,299.89 565.42,491.812 -42.79,-6.406 -83.42,-9.953 -121,-9.953 0,0 -0.02,0 -0.04,0"
         style="fill:#444142;fill-opacity:1;fill-rule:nonzero;stroke:none"
         id="path24"
         inkscape:connector-curvature="0" /><path
         d="M 643.207,313.441 C 626.309,288.582 581.488,266.699 532.672,266.699 428.141,266.699 350.488,417.012 316.625,541.531 284.77,473.789 244.949,392.148 217.051,342.371 191.184,296.57 158.301,261.742 95.582,261.742 15.9375,261.742 0,287.602 0,287.602 92.6133,414.07 256.871,745.629 310.645,951.703 c 66.718,2 135.418,-6.933 135.418,-80.586 0,-47.851 -38.836,-136.469 -87.606,-244.996 190.152,49.82 305.664,182.223 305.664,286.774 0,17.91 -1.988,21.882 -1.988,21.882 0,0 19.914,19.914 62.726,19.914 60.754,0 84.637,-26.836 84.637,-60.722 0,-99.59 -183.187,-229.989 -341.512,-287.758 30.868,-120.449 95.602,-230 175.223,-292.77"
         style="fill:#444142;fill-opacity:1;fill-rule:nonzero;stroke:none"
         id="path26"
         inkscape:connector-curvature="0" /><path
         d="m 1274.32,859.145 c -185.17,0 -394.281,-268.825 -394.281,-462.036 0,-43.757 22.899,-60.718 49.801,-60.718 179.21,0 337.52,299.73 337.52,492.851 69.68,2.988 103.54,-35.84 103.54,-86.601 0,-173.262 -209.08,-481.911 -501.798,-481.911 -108.543,0 -166.293,59.719 -166.293,160.309 0,250.883 271.824,536.641 520.751,536.641 83.64,0 151.32,-43.789 151.32,-124.414 0,0 -32.84,25.879 -100.56,25.879"
         style="fill:#4dc6f4;fill-opacity:1;fill-rule:nonzero;stroke:none"
         id="path28"
         inkscape:connector-curvature="0" /><path
         d="m 2510.7,859.145 c -185.22,0 -394.28,-268.825 -394.28,-462.036 0,-43.757 22.88,-60.718 49.75,-60.718 179.26,0 337.57,299.73 337.57,492.851 69.68,2.988 103.55,-35.84 103.55,-86.601 0,-173.262 -209.11,-481.911 -501.83,-481.911 -108.55,0 -166.29,59.719 -166.29,160.309 0,250.883 271.83,536.641 520.73,536.641 83.64,0 151.35,-43.789 151.35,-124.414 0,0 -32.85,25.879 -100.55,25.879"
         style="fill:#4dc6f4;fill-opacity:1;fill-rule:nonzero;stroke:none"
         id="path30"
         inkscape:connector-curvature="0" /><path
         d="m 2844.46,1232.5 c 0,0 -1118.07,-498.711 -754.21,211.27 363.86,709.99 -612.57,37.39 -1256.676,-605.555 0,0 1536.276,1184.845 1035.866,477.335 -500.46,-707.46 498.27,-341.804 975.02,-83.05"
         style="fill:#4dc6f4;fill-opacity:1;fill-rule:nonzero;stroke:none"
         id="path32"
         inkscape:connector-curvature="0" /><path
         d="m 1212.77,1645.83 c 95.41,-78.96 108.74,-220.3 29.78,-315.66 -79,-95.46 -220.29,-108.74 -315.702,-29.79 -95.407,79.01 -108.743,220.31 -29.739,315.72 78.961,95.4 220.301,108.73 315.661,29.73"
         style="fill:#4dc6f4;fill-opacity:1;fill-rule:nonzero;stroke:none"
         id="path34"
         inkscape:connector-curvature="0" /></g></g></svg>