<svg xmlns="http://www.w3.org/2000/svg" viewBox="0 0 1085.02 741.96">
    <defs>
        <style>.cls-1{fill:#fff;}.cls-2{fill:#06c8c9;}.cls-3{fill:red;}</style>
    </defs>
    <g id="Layer_2" data-name="Layer 2">
        <g id="Layer_1-2" data-name="Layer 1">
            <path class="cls-1"
                  d="M966.11,555.24h54.46q0,8.4-.7,15.26a54.18,54.18,0,0,1-2.8,12.74,50.71,50.71,0,0,1-8,14.63,46.6,46.6,0,0,1-11.83,10.64A55.49,55.49,0,0,1,982.35,615a63.73,63.73,0,0,1-17.08,2.24,59.88,59.88,0,0,1-22.47-4.06,50.55,50.55,0,0,1-17.43-11.41A51.48,51.48,0,0,1,914,584.15,61.4,61.4,0,0,1,910,561.4a62.05,62.05,0,0,1,4-22.61,49.68,49.68,0,0,1,11.34-17.57A51.6,51.6,0,0,1,943,509.88a62.92,62.92,0,0,1,23.1-4.06q16.51,0,29,7.14t19.74,22.12l-26,10.78q-3.64-8.67-9.45-12.46a23.75,23.75,0,0,0-13.23-3.78,26.56,26.56,0,0,0-11.2,2.31,24.35,24.35,0,0,0-8.61,6.58,31.59,31.59,0,0,0-5.6,10.29,41.77,41.77,0,0,0-2,13.44,42.4,42.4,0,0,0,1.75,12.46,27.9,27.9,0,0,0,5.25,9.94,23.59,23.59,0,0,0,8.68,6.51,29.29,29.29,0,0,0,12,2.31,33.25,33.25,0,0,0,7.84-.91,20.44,20.44,0,0,0,6.79-2.94,16.77,16.77,0,0,0,5-5.25,21.14,21.14,0,0,0,2.66-7.84H966.11Z"/>
            <path class="cls-1"
                  d="M966.11,555.24h54.46q0,8.4-.7,15.26a54.18,54.18,0,0,1-2.8,12.74,50.71,50.71,0,0,1-8,14.63,46.6,46.6,0,0,1-11.83,10.64A55.49,55.49,0,0,1,982.35,615a63.73,63.73,0,0,1-17.08,2.24,59.88,59.88,0,0,1-22.47-4.06,50.55,50.55,0,0,1-17.43-11.41A51.48,51.48,0,0,1,914,584.15,61.4,61.4,0,0,1,910,561.4a62.05,62.05,0,0,1,4-22.61,49.68,49.68,0,0,1,11.34-17.57A51.6,51.6,0,0,1,943,509.88a62.92,62.92,0,0,1,23.1-4.06q16.51,0,29,7.14t19.74,22.12l-26,10.78q-3.64-8.67-9.45-12.46a23.75,23.75,0,0,0-13.23-3.78,26.56,26.56,0,0,0-11.2,2.31,24.35,24.35,0,0,0-8.61,6.58,31.59,31.59,0,0,0-5.6,10.29,41.77,41.77,0,0,0-2,13.44,42.4,42.4,0,0,0,1.75,12.46,27.9,27.9,0,0,0,5.25,9.94,23.59,23.59,0,0,0,8.68,6.51,29.29,29.29,0,0,0,12,2.31,33.25,33.25,0,0,0,7.84-.91,20.44,20.44,0,0,0,6.79-2.94,16.77,16.77,0,0,0,5-5.25,21.14,21.14,0,0,0,2.66-7.84H966.11Z"/>
            <path class="cls-1"
                  d="M966.11,555.24h54.46q0,8.4-.7,15.26a54.18,54.18,0,0,1-2.8,12.74,50.71,50.71,0,0,1-8,14.63,46.6,46.6,0,0,1-11.83,10.64A55.49,55.49,0,0,1,982.35,615a63.73,63.73,0,0,1-17.08,2.24,59.88,59.88,0,0,1-22.47-4.06,50.55,50.55,0,0,1-17.43-11.41A51.48,51.48,0,0,1,914,584.15,61.4,61.4,0,0,1,910,561.4a62.05,62.05,0,0,1,4-22.61,49.68,49.68,0,0,1,11.34-17.57A51.6,51.6,0,0,1,943,509.88a62.92,62.92,0,0,1,23.1-4.06q16.51,0,29,7.14t19.74,22.12l-26,10.78q-3.64-8.67-9.45-12.46a23.75,23.75,0,0,0-13.23-3.78,26.56,26.56,0,0,0-11.2,2.31,24.35,24.35,0,0,0-8.61,6.58,31.59,31.59,0,0,0-5.6,10.29,41.77,41.77,0,0,0-2,13.44,42.4,42.4,0,0,0,1.75,12.46,27.9,27.9,0,0,0,5.25,9.94,23.59,23.59,0,0,0,8.68,6.51,29.29,29.29,0,0,0,12,2.31,33.25,33.25,0,0,0,7.84-.91,20.44,20.44,0,0,0,6.79-2.94,16.77,16.77,0,0,0,5-5.25,21.14,21.14,0,0,0,2.66-7.84H966.11Z"/>
            <path class="cls-1"
                  d="M966.11,555.24h54.46q0,8.4-.7,15.26a54.18,54.18,0,0,1-2.8,12.74,50.71,50.71,0,0,1-8,14.63,46.6,46.6,0,0,1-11.83,10.64A55.49,55.49,0,0,1,982.35,615a63.73,63.73,0,0,1-17.08,2.24,59.88,59.88,0,0,1-22.47-4.06,50.55,50.55,0,0,1-17.43-11.41A51.48,51.48,0,0,1,914,584.15,61.4,61.4,0,0,1,910,561.4a62.05,62.05,0,0,1,4-22.61,49.68,49.68,0,0,1,11.34-17.57A51.6,51.6,0,0,1,943,509.88a62.92,62.92,0,0,1,23.1-4.06q16.51,0,29,7.14t19.74,22.12l-26,10.78q-3.64-8.67-9.45-12.46a23.75,23.75,0,0,0-13.23-3.78,26.56,26.56,0,0,0-11.2,2.31,24.35,24.35,0,0,0-8.61,6.58,31.59,31.59,0,0,0-5.6,10.29,41.77,41.77,0,0,0-2,13.44,42.4,42.4,0,0,0,1.75,12.46,27.9,27.9,0,0,0,5.25,9.94,23.59,23.59,0,0,0,8.68,6.51,29.29,29.29,0,0,0,12,2.31,33.25,33.25,0,0,0,7.84-.91,20.44,20.44,0,0,0,6.79-2.94,16.77,16.77,0,0,0,5-5.25,21.14,21.14,0,0,0,2.66-7.84H966.11Z"/>
            <path class="cls-1"
                  d="M966.11,555.24h54.46q0,8.4-.7,15.26a54.18,54.18,0,0,1-2.8,12.74,50.71,50.71,0,0,1-8,14.63,46.6,46.6,0,0,1-11.83,10.64A55.49,55.49,0,0,1,982.35,615a63.73,63.73,0,0,1-17.08,2.24,59.88,59.88,0,0,1-22.47-4.06,50.55,50.55,0,0,1-17.43-11.41A51.48,51.48,0,0,1,914,584.15,61.4,61.4,0,0,1,910,561.4a62.05,62.05,0,0,1,4-22.61,49.68,49.68,0,0,1,11.34-17.57A51.6,51.6,0,0,1,943,509.88a62.92,62.92,0,0,1,23.1-4.06q16.51,0,29,7.14t19.74,22.12l-26,10.78q-3.64-8.67-9.45-12.46a23.75,23.75,0,0,0-13.23-3.78,26.56,26.56,0,0,0-11.2,2.31,24.35,24.35,0,0,0-8.61,6.58,31.59,31.59,0,0,0-5.6,10.29,41.77,41.77,0,0,0-2,13.44,42.4,42.4,0,0,0,1.75,12.46,27.9,27.9,0,0,0,5.25,9.94,23.59,23.59,0,0,0,8.68,6.51,29.29,29.29,0,0,0,12,2.31,33.25,33.25,0,0,0,7.84-.91,20.44,20.44,0,0,0,6.79-2.94,16.77,16.77,0,0,0,5-5.25,21.14,21.14,0,0,0,2.66-7.84H966.11Z"/>
            <path class="cls-1" d="M730.51,614.14v-106h27.87L808.51,573V508.14h27v106H807.38l-49.87-64.81v64.81Z"/>
            <path class="cls-1"
                  d="M1002.64,204.51a34.07,34.07,0,0,0-8.89-5.35,23.81,23.81,0,0,0-8.62-1.73,13.94,13.94,0,0,0-8.61,2.5,7.78,7.78,0,0,0-3.34,6.53,6.53,6.53,0,0,0,1.67,4.59,14.54,14.54,0,0,0,4.38,3.12,36.43,36.43,0,0,0,6.11,2.29q3.4,1,6.74,2.09,13.33,4.44,19.52,11.88t6.19,19.38a37.82,37.82,0,0,1-2.71,14.59,30.47,30.47,0,0,1-7.92,11.19,36.6,36.6,0,0,1-12.79,7.22,53.07,53.07,0,0,1-17.16,2.58,63.06,63.06,0,0,1-36.82-11.82l11.67-21.95a47.55,47.55,0,0,0,12.09,8.06A29,29,0,0,0,976,262.32q6.67,0,9.94-3.06a9.3,9.3,0,0,0,3.26-6.95,9.42,9.42,0,0,0-.83-4.09,9,9,0,0,0-2.78-3.2,22.37,22.37,0,0,0-5.07-2.71c-2.09-.83-4.61-1.76-7.58-2.78q-5.28-1.67-10.35-3.68a32.58,32.58,0,0,1-9-5.35,24.84,24.84,0,0,1-6.39-8.41q-2.43-5.07-2.43-12.85a37,37,0,0,1,2.57-14.1,31.28,31.28,0,0,1,7.22-10.84,32.19,32.19,0,0,1,11.4-7,43,43,0,0,1,15.07-2.5,66.26,66.26,0,0,1,16.26,2.15,72.4,72.4,0,0,1,16.26,6.32Z"/>
            <path class="cls-1"
                  d="M878.14,282.47H844.23l-26-40.3v40.3H791V177.7h42.38a41.5,41.5,0,0,1,15.29,2.57,28.72,28.72,0,0,1,17.16,17.3,35.73,35.73,0,0,1,2.15,12.5q0,12-5.76,19.39t-17,10.07Zm-59.89-58h5.14q8.05,0,12.37-3.33t4.3-9.59q0-6.25-4.3-9.59t-12.37-3.33h-5.14Z"/>
            <path class="cls-1"
                  d="M386.46,447.21H352.55l-26-40.3v40.3H299.33V342.44h42.38A41.71,41.71,0,0,1,357,345a28.79,28.79,0,0,1,17.16,17.3,35.75,35.75,0,0,1,2.15,12.51q0,11.94-5.76,19.38t-17,10.08Zm-59.89-57.94h5.14q8.06,0,12.37-3.34t4.3-9.58q0-6.25-4.3-9.59t-12.37-3.34h-5.14Z"/>
            <path class="cls-2"
                  d="M967.47,524.46c31.15-86.27-13.68-181.79-99.94-213l-537-194c-86.26-31.15-181.79,13.68-212.94,100s13.67,181.8,99.93,213l537,194C840.79,655.56,936.31,610.74,967.47,524.46ZM227.83,401.86a135.94,135.94,0,1,1,92.35-255.71l537,194a135.94,135.94,0,1,1-92.36,255.71Z"/>
            <path class="cls-1" d="M653.91,508.76V614.32H626.47V508.76Z"/>
            <path class="cls-1"
                  d="M9.27,282.47,27.06,177.7H54l21,55.86L95.84,177.7h27l17.78,104.77H113.49l-9-60.31L79.72,282.47H68.88L45.4,222.16l-9,60.31Z"/>
            <path class="cls-1" d="M524.83,508.76v82.32h32.9v23.24H497.39V508.76Z"/>
            <path class="cls-1"
                  d="M277.59,264.26H238.68l-6.25,18.21h-29L243.27,177.7H273l39.88,104.77h-29Zm-7.23-20.7-12.23-34.88-12.22,34.88Z"/>
            <path class="cls-1"
                  d="M437.94,204.51a34,34,0,0,0-8.9-5.35,23.72,23.72,0,0,0-8.61-1.73,14,14,0,0,0-8.62,2.5,7.79,7.79,0,0,0-3.33,6.53,6.49,6.49,0,0,0,1.67,4.59,14.62,14.62,0,0,0,4.37,3.12,36.89,36.89,0,0,0,6.12,2.29c2.27.65,4.51,1.35,6.74,2.09q13.33,4.44,19.52,11.88t6.18,19.38a37.63,37.63,0,0,1-2.71,14.59,30.24,30.24,0,0,1-7.92,11.19,36.47,36.47,0,0,1-12.78,7.22,53.07,53.07,0,0,1-17.16,2.58,63.06,63.06,0,0,1-36.82-11.82l11.67-21.95a47.21,47.21,0,0,0,12.09,8.06,29,29,0,0,0,11.81,2.64c4.44,0,7.76-1,9.93-3.06a9.28,9.28,0,0,0,3.27-6.95,9.42,9.42,0,0,0-.83-4.09,9,9,0,0,0-2.78-3.2,22.25,22.25,0,0,0-5.08-2.71c-2.08-.83-4.61-1.76-7.57-2.78q-5.28-1.67-10.35-3.68a32.58,32.58,0,0,1-9-5.35,24.84,24.84,0,0,1-6.39-8.41Q380,217,380,209.24a37.16,37.16,0,0,1,2.57-14.1,31.44,31.44,0,0,1,7.23-10.84,32.24,32.24,0,0,1,11.39-7,43.05,43.05,0,0,1,15.08-2.5,66.26,66.26,0,0,1,16.26,2.15,72.4,72.4,0,0,1,16.26,6.32Z"/>
            <path class="cls-1" d="M566.19,200.76v81.71H539V200.76H516.58V177.7h72v23.06Z"/>
            <path class="cls-1" d="M715.84,200.76H683.47v17.51H714v23.07H683.47V259.4h32.37v23.07H656.23V177.7h59.61Z"/>
            <path class="cls-1" d="M209.29,365.51v81.7H182.06v-81.7H159.69V342.44h72v23.07Z"/>
            <path class="cls-1"
                  d="M517.63,429H478.72l-6.25,18.2h-29l39.88-104.77H513l39.88,104.77h-29ZM510.4,408.3l-12.22-34.87L486,408.3Z"/>
            <path class="cls-1"
                  d="M692,377.46q-9.45-11.54-23.34-11.54a28.63,28.63,0,0,0-11.33,2.23,27.08,27.08,0,0,0-14.86,15.14,29.82,29.82,0,0,0-2.16,11.4,30.15,30.15,0,0,0,2.16,11.53,27.83,27.83,0,0,0,26,17.51q13.07,0,23.48-11.12v32.24l-2.78,1a81.18,81.18,0,0,1-11.67,3.27,56.94,56.94,0,0,1-10.7,1,54.72,54.72,0,0,1-38.28-15.63,57.45,57.45,0,0,1-12.16-17.65,56.64,56.64,0,0,1-.07-44.46A55.34,55.34,0,0,1,667,339.52a57.49,57.49,0,0,1,12.3,1.32,74.61,74.61,0,0,1,12.71,4.1Z"/>
            <path class="cls-1"
                  d="M796.5,385.66l33.21-43.22h33.63l-41.55,49.61,45.44,55.16H831.94L796.5,401.77v45.44H769.27V342.44H796.5Z"/>
            <path class="cls-2"
                  d="M979.14,528.67c33.48-92.7-14.69-195.35-107.39-228.84l-537-194C242,72.4,139.37,120.58,105.88,213.28s14.69,195.36,107.4,228.85l537,194C843,669.56,945.66,621.38,979.14,528.67ZM214.66,438.29A174.68,174.68,0,0,1,333.33,109.71l537,194A174.68,174.68,0,0,1,751.69,632.25Z"/>
            <path class="cls-1"
                  d="M129.33,544q-9.51-11.61-23.52-11.62a28.85,28.85,0,0,0-11.41,2.24,27.33,27.33,0,0,0-15,15.26,30.27,30.27,0,0,0-2.17,11.48A30.58,30.58,0,0,0,79.42,573a28,28,0,0,0,15,15.4,27.83,27.83,0,0,0,11.2,2.24q13.17,0,23.66-11.2v32.48l-2.8,1a80.18,80.18,0,0,1-11.76,3.29,57,57,0,0,1-10.78,1,55.1,55.1,0,0,1-38.57-15.75,57.88,57.88,0,0,1-12.25-17.78,57,57,0,0,1-.07-44.8A55.07,55.07,0,0,1,83,510a55.3,55.3,0,0,1,21.14-4.13,58.33,58.33,0,0,1,12.39,1.33,76.05,76.05,0,0,1,12.81,4.13Z"/>
            <path class="cls-1"
                  d="M226.77,563.64l-38.5-54.88H221l19.6,28.84,19.46-28.84h32.76l-38.64,54.88v50.68H226.77Z"/>
            <path class="cls-1"
                  d="M425.43,544q-9.53-11.61-23.52-11.62a28.82,28.82,0,0,0-11.41,2.24,27.33,27.33,0,0,0-15,15.26,30.08,30.08,0,0,0-2.17,11.48A30.39,30.39,0,0,0,375.52,573a28,28,0,0,0,15.05,15.4,27.8,27.8,0,0,0,11.2,2.24q13.16,0,23.66-11.2v32.48l-2.8,1a80.18,80.18,0,0,1-11.76,3.29,57,57,0,0,1-10.78,1,55.1,55.1,0,0,1-38.57-15.75,57.71,57.71,0,0,1-12.25-17.78,57,57,0,0,1-.07-44.8,55.75,55.75,0,0,1,51-33.11,58.33,58.33,0,0,1,12.39,1.33,76.05,76.05,0,0,1,12.81,4.13Z"/>
            <path class="cls-2"
                  d="M1068.66,561c51.39-142.29-22.3-299.29-164.59-350.68l-537-194C224.77-35,67.76,38.66,16.36,181S38.67,480.25,181,531.64l537,194C860.26,777,1017.26,703.3,1068.66,561ZM182.34,527.8A269.85,269.85,0,0,1,365.67,20.2l537,194A269.85,269.85,0,1,1,719.35,721.76Z"/>
            <path class="cls-3"
                  d="M1004.82,537.94C1043.41,431.08,987.88,312.75,881,274.15L344,80.2C237.13,41.61,118.81,97.14,80.21,204S97.14,429.2,204,467.81l537,194C847.89,700.35,966.22,644.81,1004.82,537.94ZM205.39,464A202,202,0,0,1,342.61,84l537,194A202,202,0,0,1,742.41,657.92Z"/>
        </g>
    </g>
</svg>