<svg xmlns="http://www.w3.org/2000/svg" width="1000" height="249"><path d="m -4.9999999e-6,596.3243 0,248.00275 L 1000,845 l 0,-248.6757 -1000.0000049999996,0 z" fill="#1482c2" transform="translate(0 -596)"/><path d="M1364.1877-585.16912l-172.1955 254.99437c-17.9096 26.9856-49.3276 43.29755-82.2122 43.29755-53.5475 0-97.8717-43.99826-97.8717-97.0895 0-53.87343 44.3242-97.79021 98.2472-97.79021 5.3449-.68442 12.515-1.43402 17.5171-1.43402 37.1711 0 75.0422 15.59494 100.7723 41.83094l51.4291-77.9421c-40.0051-41.06505-99.3213-67.34994-158.6544-67.34994-110.7609 0-212.21768 91.40232-212.21768 201.93573 0 109.88159 90.74984 199.83359 201.54468 199.83359 53.5801 0 107.1602-22.66725 144.3299-60.24503l118.6167 0 .704 60.24503 102.9403 0 0-400.28641-112.9459 0zm-47.11 252.17522l56.4155-78.57763.704 78.57763-57.1156 0zM1674.3631-184.88766l-102.9077 0 0-306.81442-80.0273 0 0-92.80374 262.9297-.66878 0 93.47187-79.9947 0 0 306.81455zM2097.3995-585.16912l-102.9077.0261-.717 149.44743-121.5004 0-.7691-149.48002-102.8256 0 0 400.28641 103.5908 0 0-158.01894 122.2174 0 0 158.01894 102.9077 0 0-400.28641zM2922.0339-585.16912l0 186.2756-141.4789-186.2756-93.6504.65183-.704 145.99275c-23.5792-85.03072-104.3404-146.64458-194.3746-146.64458-110.7452 0-201.512 89.91941-201.512 200.45282 0 35.49193 10.7069 71.53792 27.833 102.76039l-101.9456 0 0-303.21321-104.8619 0 0 400.28641 239.7247 0 0-56.00816c37.8711 34.74233 89.3171 56.00816 140.7618 56.00816 90.0342 0 169.3771-60.24503 194.3746-145.29204l.704 145.29204 103.6559 0 0-194.79823 140.7137 194.79823 93.5852 0 .1304-400.28641-102.9403 0zm-430.2053 302.51249c-56.4481 0-102.8907-45.3345-102.8907-102.05967 0-55.94297 46.4426-101.97819 102.8907-101.97819 57.1978 0 103.6404 46.03522 103.6404 101.97819 0 56.72517-46.4426 102.05967-103.6404 102.05967M784.55137-281.94939l0-56.02446 110.43629 0-.19555-97.72503-110.24074 0 0-50.98909 121.72852 0-.20858-98.47463-234.38102.65182 0 137.47013c-24.29617-75.09037-94.35183-130.38152-174.37913-137.47013l-177.93288-.65182 0 400.27011 178.66553 0c79.29465-7.05601 149.35031-62.31457 173.64648-136.72052l0 136.72052 234.59221 0-.20858-97.0569-121.51734 0zm-226.49263-41.81465c-6.40484 26.95301-32.15197 46.03522-60.01754 46.75223l-65.73666 0 0-214.69522 65.73666 0c27.86557 0 53.6127 19.92958 60.01754 47.51812 6.45308 18.43038 10.02118 39.67991 10.02118 59.47913 0 20.59771-3.5681 41.81465-10.02118 60.94574" transform="translate(-43.835 250.123) scale(.32522)" fill="#fff"/></svg>