<svg xmlns="http://www.w3.org/2000/svg" width="379.267" height="233.013"><path d="M512.461 70.5508c44.824 0 69.324 14 69.324 36.5192 0 23.852-26.937 36.551-69.324 36.551h-49.75V70.5508zm0 85.3082c56.34 0 89.984-18.277 89.984-48.789 0-30.2497-33.644-48.7106-89.984-48.7106h-49.75V0h-19.914v155.859h69.664M892.836 71.4492c44.477 0 68.297 14.9414 68.297 36.3128 0 22.91-26.274 35.859-68.297 35.859H842.055V71.4492zM966.754 0L908.262 60.8008c-5.278-.461-10.828-.6797-16.449-.6797H842.055V0h-19.91v155.859h69.668c55.992 0 89.98-18.488 89.98-48.097 0-22.7425-19.637-38.3206-53.215-44.512L989.508 0h-22.754M1363.57 56.7813l-45.16 65.6797c-5.23 8.031-10.85 18.031-11.19 18.031h-.38c-.35 0-5.9-10-11.18-18.031L1250.5 56.7813zm8.06-11.3516H1242.45L1211.3 0h-22.07l108.87 155.859h17.88L1424.85 0h-22.03l-31.19 45.4297M1825.17 155.859V0h-20.31V75.2383H1659.18V0h-19.91v155.859h19.91V87.5h145.68v68.359h20.31M2213.94 56.7813l-45.16 65.6797c-5.21 8.031-10.83 18.031-11.17 18.031h-.41c-.34 0-5.9-10-11.17-18.031L2100.86 56.7813zM2222 45.4297H2092.81L2061.67 0h-22.08l108.87 155.859h17.88L2275.21 0h-22.02L2222 45.4297M1897.81 755.539c-7.07 0-13.01.852-19.76 1.106-87.72-188.805-220.36-387.403-322.07-387.403-12.95 0-24.9 10.938-24.9 36.84 0 99.977 72.88 258.449 158.01 405.563-37.45 26.093-62.02 57.5-77.12 86.726-5.17 9.953-8.91 20.168-12.59 30.422-18.07-9.824-34.65-23.789-48.38-43.75-78.69-112.539-192.17-353.512-192.17-498.863 0-60.77 29.87-112.5 94.6-112.5 214.1 0 475.74 299.89 565.42 491.812-42.79-6.406-83.42-9.953-121-9.953 0 0-.02 0-.04 0M643.207 313.441C626.309 288.582 581.488 266.699 532.672 266.699 428.141 266.699 350.488 417.012 316.625 541.531 284.77 473.789 244.949 392.148 217.051 342.371 191.184 296.57 158.301 261.742 95.582 261.742 15.9375 261.742 0 287.602 0 287.602 92.6133 414.07 256.871 745.629 310.645 951.703c66.718 2 135.418-6.933 135.418-80.586 0-47.851-38.836-136.469-87.606-244.996 190.152 49.82 305.664 182.223 305.664 286.774 0 17.91-1.988 21.882-1.988 21.882 0 0 19.914 19.914 62.726 19.914 60.754 0 84.637-26.836 84.637-60.722 0-99.59-183.187-229.989-341.512-287.758 30.868-120.449 95.602-230 175.223-292.77" fill="#444142" transform="matrix(.13333 0 0 -.13333 0 233.013)"/><path d="M1274.32 859.145c-185.17 0-394.281-268.825-394.281-462.036 0-43.757 22.899-60.718 49.801-60.718 179.21 0 337.52 299.73 337.52 492.851 69.68 2.988 103.54-35.84 103.54-86.601 0-173.262-209.08-481.911-501.798-481.911-108.543 0-166.293 59.719-166.293 160.309 0 250.883 271.824 536.641 520.751 536.641 83.64 0 151.32-43.789 151.32-124.414 0 0-32.84 25.879-100.56 25.879M2510.7 859.145c-185.22 0-394.28-268.825-394.28-462.036 0-43.757 22.88-60.718 49.75-60.718 179.26 0 337.57 299.73 337.57 492.851 69.68 2.988 103.55-35.84 103.55-86.601 0-173.262-209.11-481.911-501.83-481.911-108.55 0-166.29 59.719-166.29 160.309 0 250.883 271.83 536.641 520.73 536.641 83.64 0 151.35-43.789 151.35-124.414 0 0-32.85 25.879-100.55 25.879" fill="#4dc6f4" transform="matrix(.13333 0 0 -.13333 0 233.013)"/><path d="M2844.46 1232.5c0 0-1118.07-498.711-754.21 211.27 363.86 709.99-612.57 37.39-1256.676-605.555 0 0 1536.276 1184.845 1035.866 477.335-500.46-707.46 498.27-341.804 975.02-83.05M1212.77 1645.83c95.41-78.96 108.74-220.3 29.78-315.66-79-95.46-220.29-108.74-315.702-29.79-95.407 79.01-108.743 220.31-29.739 315.72 78.961 95.4 220.301 108.73 315.661 29.73" fill="#4dc6f4" transform="matrix(.13333 0 0 -.13333 0 233.013)"/></svg>