<svg xmlns="http://www.w3.org/2000/svg" width="408.715" height="321.746"><path d="M192.12813 654.52035v-113.515c0-6.486 2.601-10.135 7.432-10.135 4.83 0 7.432 3.649 7.432 10.135v113.515h37.16v-123.65c0-17.838-12.078-24.324-44.592-24.324-32.515 0-44.592 6.486-44.592 24.324v123.65h37.16M313.50213 565.33035v8.514c0 8.514-4.421 53.108-8.037 60.406-3.416-7.298-8.037-51.892-8.037-60.406v-8.514zm16.074 89.19c0 0 24.111-72.974 24.111-109.461v-20.27c0-6.284.402-12.163 1.004-16.217h-34.158c-5.826 0-7.031 7.095-7.031 26.352v2.027h-16.074v-28.379h-40.186v36.487c0 36.487 24.112 109.461 24.112 109.461h48.222M421.89913 591.65535l.047 30.839c0 6.486-2.814 10.136-8.038 10.136-5.223 0-8.036-3.65-8.036-10.136v-81.082c0-6.487 2.813-10.136 8.036-10.136 5.224 0 8.038 3.649 8.038 10.136l-.047 26.364h36.214v-38.526c0-16.217-11.855-22.298-44.205-22.298-35.162 0-48.221 6.487-48.221 24.324v101.354c0 17.838 13.059 24.324 48.221 24.324 32.35 0 44.205-6.081 44.205-22.297v-42.844l-36.214-.158" fill="#f8f342" transform="matrix(1.33333 0 0 -1.33333 -206.172 945.08)"/><path d="m 273.67513,623.03435 c -13.531,11.473 -30.457,9.196 -48.701,8.468 5.104,8.641 10.877,12.841 18.92,13.297 4.194,0.238 8.47,-0.44 12.67,-0.999 4.74,-0.632 6.947,1.361 6.823,5.989 -0.21,7.866 -0.412,15.736 -0.868,23.59 -0.187,3.22 -2.43,4.176 -5.155,2.737 -1.834,-0.97 -3.225,-2.739 -4.959,-3.943 -6.079,-4.222 -13.921,-4.111 -19.446,0.168 -5.691,4.407 -7.825,12.805 -5.024,19.771 2.355,5.858 9.797,10.662 15.958,10.303 6.177,-0.361 13.88,-7.355 15.17,-14.037 0.549,-2.844 0.601,-5.784 1.116,-11.142 3.539,3.016 5.801,4.251 7.077,6.148 6.47,9.623 15.888,13.834 26.929,14.828 15.591,1.404 30.962,0.438 45.482,-6.153 10.556,-4.79 18.883,-12.201 24.133,-22.579 5.579,-11.029 7.13,-28.16 -8.103,-37.826 -5.84,-3.706 -10.908,-8.686 -16.11,-13.328 -12.867,-11.48 -19.914,-25.734 -20.234,-43.165 -0.048,-2.618 -0.841,-5.222 -1.649,-9.928 -3.123,3.553 -5.179,5.537 -6.81,7.825 -3.167,4.442 -5.973,9.143 -9.149,13.58 -7.015,9.8 -7.416,16.008 -0.458,25.74 4.931,6.898 10.555,13.299 15.833,19.951 1.504,1.895 3.092,3.771 4.281,5.861 5.184,9.121 2.374,17.673 -7.707,21.097 -5.622,1.909 -11.879,2.981 -17.793,2.779 -12.905,-0.442 -18.977,-7.129 -19.756,-20.234 -0.34,-5.722 -0.513,-11.454 -0.797,-17.179 -0.01,-0.208 -0.39,-0.396 -1.673,-1.619" fill="#fff" transform="matrix(1.33333 0 0 -1.33333 -206.172 945.08)"/><path d="m 243.20713,696.05635 c -3.427,0 -8.056,-3.095 -9.355,-6.323 -1.721,-4.284 -0.399,-9.708 3.012,-12.349 3.355,-2.598 8.139,-2.587 11.904,0.028 0.388,0.27 0.889,0.724 1.419,1.206 0.879,0.798 1.933,1.754 3.25,2.587 -0.01,0.134 -0.02,0.264 -0.03,0.393 -0.185,2.37 -0.319,4.082 -0.606,5.571 -0.771,3.992 -6.188,8.698 -9.278,8.878 -0.104,0.006 -0.21,0.009 -0.316,0.009 z m 15.219,-45.978 z m 10.553,-25.096 c -10e-4,-0.01 -0.002,-0.018 -0.002,-0.029 0.001,0.011 0.001,0.02 0.002,0.029 z m 28.375,43.487 c 5.99,0 12.311,-1.078 18.391,-3.143 6.561,-2.228 11.32,-6.471 13.401,-11.946 2.126,-5.592 1.343,-12.106 -2.2,-18.342 -1.265,-2.224 -2.815,-4.156 -4.181,-5.861 l -0.65,-0.814 c -1.783,-2.247 -3.606,-4.467 -5.429,-6.688 -3.625,-4.414 -7.049,-8.585 -10.211,-13.006 -5.201,-7.276 -5.121,-10.528 0.457,-18.319 1.687,-2.358 3.265,-4.769 4.789,-7.101 0.533,-0.815 1.056,-1.614 1.575,-2.401 1.604,16.413 9.002,30.6 22.045,42.237 0.969,0.866 1.935,1.742 2.899,2.62 4.346,3.95 8.839,8.034 14.039,11.335 15.292,9.703 6.843,27.556 5.83,29.56 -4.394,8.687 -11.486,15.298 -21.078,19.652 -11.811,5.36 -25.243,7.142 -42.274,5.609 -10.252,-0.924 -17.31,-4.749 -22.208,-12.035 -1.112,-1.654 -2.44,-2.841 -3.951,-4.04 0.15,-0.651 0.248,-1.333 0.289,-2.038 0.446,-7.683 0.654,-15.459 0.855,-22.979 l 0.021,-0.809 c 0.114,-4.247 -1.122,-7.564 -3.673,-9.859 -2.158,-1.94 -4.948,-2.864 -8.349,-2.789 3.976,-0.776 7.862,-1.993 11.61,-3.846 0.123,2.915 0.254,5.831 0.428,8.744 1.246,20.99 14.774,25.849 25.903,26.23 0.554,0.019 1.111,0.029 1.672,0.029 z m 24.377,-117.48 -8.818,10.033 c -1.043,1.187 -1.964,2.194 -2.788,3.095 -1.679,1.836 -3.129,3.422 -4.424,5.237 -1.637,2.297 -3.171,4.645 -4.655,6.914 -1.52,2.322 -2.955,4.518 -4.487,6.657 -8.702,12.157 -8.831,21.454 -0.461,33.162 3.409,4.769 7.13,9.301 10.729,13.683 1.778,2.165 3.556,4.331 5.296,6.523 l 0.689,0.861 c 1.173,1.464 2.281,2.847 3.045,4.189 1.63,2.868 2.114,5.533 1.365,7.505 -0.903,2.377 -3.532,3.705 -5.579,4.4 -5.13,1.743 -10.632,2.613 -15.525,2.443 -9.32,-0.318 -13.009,-4.177 -13.607,-14.237 -0.202,-3.404 -0.344,-6.812 -0.486,-10.218 -0.097,-2.3 -0.193,-4.6 -0.307,-6.899 -0.134,-2.822 -1.915,-4.378 -2.676,-5.041 -0.215,-0.187 -0.528,-0.46 -0.969,-0.881 l -4.151,-3.952 -4.372,3.706 c -10.172,8.625 -23.301,7.981 -38.498,7.229 -1.924,-0.096 -3.867,-0.191 -5.824,-0.27 l -11.701,-0.467 5.955,10.084 c 6.278,10.629 13.921,15.848 24.052,16.422 4.353,0.245 8.52,-0.32 12.546,-0.866 l 0.917,-0.124 -0.007,0.25 c -0.134,5.029 -0.272,10.174 -0.482,15.298 l -1.505,-1.285 -0.165,1.709 c -8.178,-4.998 -18.371,-4.59 -25.785,1.149 -7.94,6.149 -10.898,17.586 -7.035,27.193 3.377,8.398 13.381,14.801 22.246,14.29 8.752,-0.51 18.278,-8.838 20.747,-17.849 6.911,7.964 16.508,12.543 28.602,13.632 19.317,1.743 34.788,-0.386 48.69,-6.697 12.304,-5.583 21.451,-14.166 27.188,-25.509 7.531,-14.884 7.242,-34.909 -10.377,-46.088 -4.27,-2.711 -8.167,-6.253 -12.293,-10.004 -0.995,-0.904 -1.989,-1.807 -2.988,-2.698 -11.901,-10.62 -17.822,-23.22 -18.102,-38.524 -0.042,-2.269 -0.465,-4.353 -0.953,-6.768 -0.24,-1.182 -0.513,-2.525 -0.788,-4.122 l -2.259,-13.165" fill="#fff" transform="matrix(1.33333 0 0 -1.33333 -206.172 945.08)"/><path d="m 407.64913,531.19135 c 14.851,5.708 24.367,30.255 22.973,43.226 -0.879,8.177 -5.284,10.534 -12.55,6.254 -15.257,-8.99 -24.557,-22.025 -25.31,-34.88 -0.201,-17.623 3.165,-19.105 14.887,-14.6 z m -52.045,50.221 c -8.313,4.422 -13.079,1.643 -13.402,-7.451 -0.615,-17.384 4.62,-32.124 20.071,-41.962 4.548,-2.895 9.687,-5.744 14.168,-2.024 2.937,2.439 3.686,7.513 4.653,9.689 -1.926,19.843 -9.83,33.42 -25.49,41.748 z m 56.739,8.31 c 7.204,4.582 7.468,11.41 0.431,16.035 -5.153,3.386 -11.252,5.79 -17.264,7.312 -12.311,3.118 -24.065,0.548 -34.489,-6.519 -8.051,-5.46 -8.015,-9.104 -1.08,-15.702 7.277,-6.925 16.455,-8.221 25.854,-8.86 9.739,-0.379 18.589,2.673 26.548,7.734 z m -24.911,-70.774 c -24.191,-0.558 -52.021,20.02 -52.25,51.108 -0.205,27.925 27.495,51.098 50.915,50.539 27.475,-0.655 52.044,-20.003 51.562,-54.111 -0.372,-26.345 -24.042,-48.034 -50.227,-47.536" fill="#fff" transform="matrix(1.33333 0 0 -1.33333 -206.172 945.08)"/><path d="M348.83613 589.84035c1.116 0 2.339-.13 3.67-.437-1.17 1.386-2.202 2.882-2.931 4.504-.988-1.373-1.89-2.777-2.703-4.208.615.091 1.269.141 1.964.141zm74.966 4.521c-.549-2.014-1.564-3.923-3.009-5.671 2.381.587 4.406.54 6.072.186-.903 1.942-1.93 3.773-3.063 5.485zm-37.669-6.004c7.754-.287 15.206 1.925 22.787 6.747 1.904 1.211 2.601 2.352 2.604 2.825.003.407-.594 1.409-2.253 2.498-4.175 2.745-9.475 4.978-15.327 6.459-10.174 2.578-20.047.687-29.343-5.615-1.856-1.258-2.745-2.097-3.155-2.557.34-.541 1.123-1.563 2.89-3.246 5.31-5.052 12.017-6.438 21.797-7.111zm-14.588-10.76c7.731-7.709 12.67-17.746 14.934-30.301 1.023 11.249 7.429 22.362 17.784 31.315-6.141-2.236-12.393-3.249-18.717-2.997l-.184.01c-4.428.302-9.147.761-13.817 1.973zm27.593-32.036c-.064-6.244.392-8.956.737-10.106.841.128 2.462.529 5.487 1.691 11.688 4.491 20.059 25.981 18.918 36.589-.14 1.307-.366 2.104-.541 2.556-.474-.132-1.266-.431-2.429-1.116-13.197-7.775-21.475-18.835-22.172-29.614zm-50.009 31.522c-.207-.504-.488-1.561-.552-3.348-.602-16.984 4.839-28.537 17.121-36.356 4.812-3.063 6.048-3.013 6.669-2.496.68.565 1.498 3.229 1.848 4.368.127.414.252.82.381 1.217-1.98 17.374-8.799 28.299-21.987 35.314v0c-1.75.931-2.906 1.231-3.48 1.301zm32.076-51.4c2.036-.281 4.074-.413 6.079-.358l.134.004.135-.004c1.306-.017 2.613.016 3.918.119-2.802 2.476-4.149 6.209-4.725 11.137-.108-.327-.233-.738-.337-1.075-.849-2.765-2.104-6.855-5.204-9.823zm5.27-13.122c-14.23 0-29.173 6.298-40.191 16.984-11.16 10.825-17.368 25.195-17.479 40.466-.106 14.32 6.104 28.371 17.486 39.568 11.403 11.215 26.326 17.726 39.958 17.392 29.132-.694 58.337-21.726 57.787-60.578-.199-14.075-6.157-27.482-16.775-37.756-10.808-10.453-25.319-16.238-39.816-16.068-.323-.005-.649-.008-.97-.008M199.14513 582.34535c-8.823 6.202-15.515 2.793-15.596-7.916-.123-15.991 7.614-31.921 23.177-40.39 10.593-5.765 14.991-2.791 14.976 7.204.295 19.588-9.172 31.693-22.557 41.102zm45.771-50.489c16.15 4.455 30.981 29.01 27.523 45.57-1.546 7.404-5.74 9.685-12.513 6.355-16.321-8.024-24.705-21.567-26.588-35.412-.672-15.016 2.953-18.893 11.578-16.513zm8.008 59.581c7.35 5.555 7.651 12.134.685 18.02-1.828 1.544-3.857 3.123-6.07 3.892-15.91 5.531-31.411 5.26-45.964-4.17-6.381-4.134-6.762-11.456-.498-15.566 8.127-5.331 16.698-9.946 25.772-9.296 10.826-.022 20.164 2.651 26.075 7.12zm-26.036 31.367c23.321 2.863 52.702-23.645 51.586-50.096-1.265-30.015-22.735-49.783-51.972-50.987-23.465-.966-50.265 18.11-50.485 51.206-.186 28.076 25.539 51.068 50.871 49.877" fill="#fff" transform="matrix(1.33333 0 0 -1.33333 -206.172 945.08)"/><path d="m 264.33113,596.24435 c -0.499,-1.576 -1.322,-3.284 -2.628,-5.036 1.963,0.475 3.834,0.579 5.595,0.313 -0.878,1.6 -1.87,3.179 -2.967,4.723 z m -73.726,1.485 c -1.543,-2.137 -2.886,-4.382 -4.012,-6.704 1.776,0.642 4.213,1.075 7.215,0.547 -1.566,1.83 -2.657,3.922 -3.203,6.157 z m 36.967,12.881 c -8.084,0 -15.542,-2.256 -22.528,-6.784 -1.285,-0.832 -2.085,-1.879 -2.088,-2.733 -0.003,-0.977 1.132,-1.827 1.619,-2.147 7.018,-4.603 14.513,-8.806 21.818,-8.267 l 0.234,0.016 h 0.235 c 0.043,0 0.085,0 0.127,0 9.139,0 17.185,2.122 22.088,5.83 h 10e-4 c 1.965,1.486 3.156,3.008 3.185,4.074 0.027,1.007 -1.008,2.498 -2.77,3.986 -0.87,0.734 -2.681,2.265 -4.047,2.739 -6.297,2.189 -12.238,3.286 -17.874,3.286 z m -16.352,-29.817 c 9.06,-8.446 14.342,-18.034 16.153,-29.328 1.992,11 7.488,20.827 15.743,28.483 -4.875,-1.314 -10.297,-2.004 -16.055,-2.009 -5.594,-0.358 -10.859,0.833 -15.841,2.854 z m 29.419,-43.204 c 0.345,-0.013 1.139,0.016 2.581,0.414 v 0 c 12.849,3.545 25.732,24.919 22.975,38.119 -0.331,1.591 -0.75,2.436 -0.982,2.772 -0.375,-0.03 -1.198,-0.21 -2.472,-0.836 -12.987,-6.385 -21.162,-17.127 -23.044,-30.267 -0.294,-7.168 0.603,-9.565 0.942,-10.202 z m -49.503,41.465 c -0.094,0 -0.162,-0.008 -0.201,-0.021 -0.17,-0.142 -0.984,-1.422 -1.009,-4.652 -0.113,-14.929 7.307,-27.916 19.848,-34.741 2.766,-1.505 4.383,-1.957 5.178,-2.087 0.169,0.599 0.375,1.733 0.372,3.682 0.225,15.048 -5.896,26.085 -19.847,35.892 v 0 c -2.32,1.63 -3.792,1.927 -4.341,1.927 z m 32.73,-50.977 c 0.793,-0.018 1.585,-0.014 2.373,0.017 1.818,0.075 3.597,0.226 5.331,0.451 -1.995,2.061 -3.187,4.733 -3.871,7.696 -0.591,-3.468 -1.874,-6.203 -3.833,-8.164 z m 0.965,-12.767 c -13.426,-0.002 -27.33,5.682 -37.551,15.427 -11.267,10.74 -17.532,25.71 -17.641,42.148 -0.098,14.8 6.331,29.517 17.641,40.378 11.08,10.644 25.419,16.433 39.376,15.934 12.619,1.343 27.14,-4.333 38.966,-15.249 12.642,-11.669 19.829,-27.186 19.225,-41.508 -1.382,-32.775 -24.724,-55.719 -58.083,-57.091 -0.642,-0.027 -1.288,-0.039 -1.933,-0.039" fill="#fff" transform="matrix(1.33333 0 0 -1.33333 -206.172 945.08)"/><path d="m 157.45313,493.91535 v -14.989 c 0,-5.672 1.63,-8.076 3.82,-8.076 2.433,0 3.99,2.48 3.99,8.076 v 14.989 h 2.142 v -14.764 c 0,-7.775 -2.653,-10.968 -6.205,-10.968 -3.357,0 -5.888,2.968 -5.888,10.819 v 14.913 h 2.141" fill="#a31c21" transform="matrix(1.33333 0 0 -1.33333 -206.172 945.08)"/><path d="M155.99613 493.23135v-14.23c0-4.623.903-10.135 5.204-10.135 3.56 0 5.521 3.652 5.521 10.285v14.08h-.775v-14.305c0-7.239-2.541-8.759-4.673-8.759-1.682 0-4.503 1.137-4.503 8.759v14.305zm5.204-25.731c-2.454 0-6.571 1.495-6.571 11.501v15.596h3.507v-15.671c0-4.698 1.144-7.392 3.137-7.392 2.877 0 3.306 4.632 3.306 7.392v15.671h3.509v-15.446c0-10.137-4.316-11.651-6.888-11.651M171.07413 468.59635v25.319h2.311l5.256-12.809c1.216-2.968 2.165-5.636 2.944-8.227l.048.037c-.194 3.381-.243 6.462-.243 10.406v10.593h1.995v-25.319h-2.141l-5.207 12.847c-1.143 2.818-2.237 5.71-3.065 8.453l-.073-.037c.122-3.194.17-6.236.17-10.444v-10.819h-1.995" fill="#a31c21" transform="matrix(1.33333 0 0 -1.33333 -206.172 945.08)"/><path d="M181.70413 469.27935h.998v23.952h-.629v-9.909c0-3.692.041-6.869.243-10.368l.02-.368-1.077-.799-.329.895c-.784 2.611-1.739 5.28-2.922 8.163l-5.081 12.386h-1.169v-23.952h.627v10.135c0 4.246-.048 7.264-.168 10.418l-.018.436 1.117.573.31-.748c.715-2.367 1.682-5.032 3.045-8.394zm2.365-1.366h-3.285l-5.38 13.274c-.651 1.603-1.212 3.051-1.701 4.388.034-1.833.049-3.81.049-6.161v-11.501h-3.361v26.684h3.453l5.429-13.233c.542-1.322 1.038-2.601 1.492-3.851-.046 1.874-.058 3.763-.058 5.809v11.275h3.362v-26.684M189.19613 493.91535v-25.319h-2.117v25.319h2.117" fill="#a31c21" transform="matrix(1.33333 0 0 -1.33333 -206.172 945.08)"/><path d="M187.76213 469.27935h.75v23.952h-.75zm2.117-1.366h-3.484v26.684h3.484v-26.684M201.38413 480.46635h-6.374v-9.127h7.104v-2.743h-9.222v25.319h8.857v-2.743h-6.739v-8h6.374v-2.706" fill="#a31c21" transform="matrix(1.33333 0 0 -1.33333 -206.172 945.08)"/><path d="M193.57613 469.27935h7.854v1.376h-7.104v10.496h6.374v1.338h-6.374v9.368h6.739v1.374h-7.489zm9.221-1.366h-10.588v26.684h10.223v-4.107h-6.739v-6.634h6.374v-4.072h-6.374v-7.762h7.104v-4.109M218.04513 479.11435l-1.606 7.288c-.365 1.653-.609 3.156-.851 4.621h-.049c-.243-1.503-.511-3.043-.828-4.583l-1.605-7.326zm-5.377-2.554l-1.703-7.964h-2.19l5.571 25.319h2.555l5.596-25.319h-2.263l-1.751 7.964h-5.815" fill="#a31c21" transform="matrix(1.33333 0 0 -1.33333 -206.172 945.08)"/><path d="M213.95613 479.79835h3.239l-1.423 6.457c-.073.333-.142.656-.206.977-.06-.31-.122-.62-.186-.929zm4.94-1.366h-6.64l1.788 8.154c.313 1.523.579 3.053.82 4.546l.093.575h1.161l.18-.79c.229-1.383.466-2.813.808-4.367zm1.887-9.153h.863l-5.294 23.952h-1.457l-5.27-23.952h.787l1.703 7.964h6.917zm2.564-1.366h-3.662l-1.751 7.963h-4.713l-1.703-7.963h-3.592l5.871 26.684h3.653l5.897-26.684M238.62413 479.71535c-.121 3.531-.267 7.776-.243 10.932h-.073c-.559-2.968-1.241-6.123-2.068-9.617l-2.895-12.284h-1.606l-2.651 12.059c-.779 3.569-1.437 6.837-1.898 9.842h-.05c-.048-3.156-.17-7.401-.315-11.195l-.439-10.856h-2.019l1.143 25.319h2.701l2.799-12.246c.68-3.118 1.24-5.898 1.653-8.528h.074c.413 2.554.997 5.335 1.728 8.528l2.919 12.246h2.7l1.022-25.319h-2.068l-.414 11.119" fill="#a31c21" transform="matrix(1.33333 0 0 -1.33333 -206.172 945.08)"/><path d="M239.69713 469.27935h.697l-.967 23.952h-1.504l-2.794-11.721c-.816-3.564-1.346-6.182-1.718-8.478l-.092-.574h-1.167l-.164.576c-.367 2.34-.875 4.958-1.646 8.489l-2.676 11.708h-1.502l-1.082-23.952h.647l.413 10.203c.149 3.874.267 8.052.315 11.175l.011.673h1.259l.138-.58c.409-2.661.992-5.682 1.89-9.798l2.533-11.521h.516l2.771 11.756c.843 3.562 1.517 6.698 2.061 9.586l.105.557h1.256l.068-.689c-.024-3.13.122-7.419.241-10.864l-.682-.061.683.025zm2.121-1.366h-3.438l-.439 11.78.683.023-.684.013c-.054 1.547-.112 3.262-.159 4.967-.27-1.221-.561-2.493-.876-3.823l-3.019-12.809h-2.696l-2.77 12.596c-.279 1.274-.527 2.447-.749 3.536-.048-1.581-.103-3.2-.164-4.77l-.464-11.513h-3.39l1.204 26.684h3.899l2.92-12.775c.415-1.901.753-3.538 1.037-5.013.293 1.466.649 3.105 1.085 5.013l3.046 12.775h3.897l1.077-26.684M252.14713 479.11435l-1.606 7.288c-.365 1.653-.609 3.156-.851 4.621h-.049c-.243-1.503-.511-3.043-.828-4.583l-1.605-7.326zm-5.377-2.554l-1.703-7.964h-2.19l5.571 25.319h2.555l5.596-25.319h-2.263l-1.751 7.964h-5.815" fill="#a31c21" transform="matrix(1.33333 0 0 -1.33333 -206.172 945.08)"/><path d="M248.05813 479.79835h3.239l-1.423 6.457c-.073.333-.142.656-.206.977-.06-.31-.121-.62-.186-.929zm4.94-1.366h-6.64l1.788 8.154c.313 1.523.579 3.053.82 4.546l.093.575h1.161l.18-.79c.229-1.383.466-2.813.809-4.367zm1.887-9.153h.863l-5.294 23.952h-1.457l-5.27-23.952h.787l1.704 7.964h6.916zm2.564-1.366h-3.662l-1.751 7.963h-4.713l-1.703-7.963h-3.592l5.871 26.684h3.653l5.897-26.684M260.24613 491.13535h-4.987v2.78h12.14v-2.78h-5.012v-22.539h-2.141v22.539" fill="#a31c21" transform="matrix(1.33333 0 0 -1.33333 -206.172 945.08)"/><path d="M260.92913 469.27935h.774v22.539h5.013v1.413h-10.774v-1.413h4.987zm2.142-1.366h-3.508v22.538h-4.988v4.146h13.507v-4.146h-5.011v-22.538M277.29813 499.66335l-3.089-4.396h-1.752l2.262 4.396zm.414-19.197h-6.375v-9.127h7.105v-2.743h-9.222v25.319h8.856v-2.743h-6.739v-8h6.375v-2.706" fill="#a31c21" transform="matrix(1.33333 0 0 -1.33333 -206.172 945.08)"/><path d="M273.57713 495.95035h.277l2.129 3.029h-.847zm-3.673-26.671h7.854v1.376h-7.104v10.496h6.375v1.338h-6.375v9.368h6.739v1.374h-7.489zm9.221-1.366h-10.588v26.684h2.806l2.96 5.748h4.31l-4.04-5.748h4.187v-4.107h-6.739v-6.634h6.374v-4.072h-6.374v-7.762h7.104v-4.109M283.30513 482.04435h2.166c2.263 0 3.698 1.916 3.698 4.809 0 3.268-1.534 4.696-3.771 4.734-1.023 0-1.752-.151-2.093-.301zm-2.117 11.533c1.071.338 2.604.527 4.064.527 2.263 0 3.722-.64 4.744-2.067.827-1.127 1.289-2.855 1.289-4.809 0-3.343-1.362-5.559-3.089-6.461v-.113c1.265-.676 2.019-2.479 2.408-5.109.536-3.531.925-5.972 1.265-6.949h-2.19c-.267.714-.632 2.893-1.094 6.048-.487 3.494-1.363 4.808-3.285 4.921h-1.995v-10.969h-2.117v24.981" fill="#a31c21" transform="matrix(1.33333 0 0 -1.33333 -206.172 945.08)"/><path d="M283.98913 482.72835h1.482c1.859 0 3.015 1.58 3.015 4.125 0 2.653-1.043 4.016-3.1 4.05-.615 0-1.083-.059-1.397-.125zm1.482-1.367h-2.849v10.37l.406.179c.506.224 1.393.36 2.37.36 2.835-.048 4.454-2.022 4.454-5.417 0-3.285-1.761-5.492-4.381-5.492zm4.719-12.082h.785c-.301 1.31-.635 3.453-1.047 6.163-.374 2.531-1.065 4.081-2.055 4.609l-.361.194v.824l.368.303c1.704.891 2.722 3.08 2.722 5.856 0 1.798-.422 3.402-1.156 4.404-.898 1.255-2.151 1.788-4.194 1.788-1.217 0-2.439-.134-3.38-.364v-23.777h.75v10.97h2.678c2.679-.155 3.517-2.316 3.962-5.51.272-1.863.647-4.322.928-5.46zm2.641-1.366h-3.625l-.166.443c-.263.699-.59 2.493-1.131 6.189-.494 3.547-1.312 4.26-2.649 4.339l-1.271-.002v-10.969h-3.484v26.163l.478.151c1.107.351 2.703.559 4.269.559 2.468 0 4.152-.747 5.3-2.353.913-1.242 1.417-3.093 1.417-5.205 0-2.87-.98-5.244-2.663-6.556.968-.954 1.617-2.61 1.974-5.027.5-3.292.908-5.887 1.234-6.825l.317-.907M293.98313 472.57835c.948-.902 2.335-1.653 3.796-1.653 2.164 0 3.43 1.766 3.43 4.32 0 2.366-.876 3.719-3.091 5.034-2.675 1.465-4.33 3.606-4.33 7.175 0 3.945 2.117 6.875 5.304 6.875 1.679 0 2.895-.602 3.625-1.24l-.584-2.667c-.535.451-1.63 1.202-3.114 1.202-2.238 0-3.091-2.066-3.091-3.794 0-2.367.999-3.532 3.262-4.884 2.773-1.653 4.184-3.719 4.184-7.438 0-3.906-1.874-7.288-5.741-7.288-1.582 0-3.31.714-4.186 1.616l.536 2.742" fill="#a31c21" transform="matrix(1.33333 0 0 -1.33333 -206.172 945.08)"/><path d="M294.19113 470.08035c.838-.685 2.246-1.176 3.442-1.176 3.733 0 5.058 3.557 5.058 6.604 0 3.278-1.08 5.2-3.851 6.851-2.277 1.36-3.595 2.691-3.595 5.471 0 2.156 1.181 4.477 3.774 4.477 1.07 0 1.968-.331 2.665-.737l.274 1.246c-.546.383-1.48.829-2.866.829-2.721 0-4.621-2.546-4.621-6.191 0-3.041 1.226-5.068 3.976-6.575 2.485-1.476 3.445-3.052 3.445-5.633 0-3.039-1.615-5.004-4.113-5.004-1.13 0-2.303.39-3.343 1.095zm3.442-2.543c-1.711 0-3.634.749-4.676 1.822l-.25.258.844 4.312.902-.858c.966-.916 2.209-1.462 3.326-1.462 2.024 0 2.746 1.879 2.746 3.637 0 2.073-.721 3.238-2.756 4.446-3.133 1.715-4.665 4.258-4.665 7.762 0 4.451 2.462 7.558 5.988 7.558 2.145 0 3.474-.882 4.075-1.409l.303-.267-.912-4.164-.865.728c-.564.475-1.486 1.041-2.674 1.041-2.34 0-2.407-2.793-2.407-3.111 0-1.954.684-2.958 2.928-4.296 3.166-1.888 4.518-4.289 4.518-8.026 0-4.768-2.583-7.971-6.425-7.971M306.26613 493.91535h2.117v-12.209h.073c.438.977.875 1.879 1.289 2.705l5.012 9.504h2.628l-5.937-10.743 6.4-14.576h-2.507l-5.401 12.434-1.557-2.78v-9.654h-2.117v25.319" fill="#a31c21" transform="matrix(1.33333 0 0 -1.33333 -206.172 945.08)"/><path d="m 315.78913,469.27935 h 1.012 l -6.114,13.929 5.54,10.023 h -1.058 l -4.82,-9.139 c -0.402,-0.804 -0.836,-1.697 -1.269,-2.665 l -0.182,-0.404 h -1.125 l -0.074,0.683 v 11.525 h -0.75 v -23.952 h 0.75 v 9.149 l 2.319,4.14 z m 3.105,-1.366 h -4.001 l -5.03,11.579 -0.797,-1.42 v -10.159 h -3.483 v 26.684 h 3.483 v -10.015 c 0.024,0.045 0.046,0.09 0.068,0.135 l 5.211,9.88 h 4.198 l -6.333,-11.46 6.684,-15.224" fill="#a31c21" transform="matrix(1.33333 0 0 -1.33333 -206.172 945.08)"/><path d="m 327.79413,499.43835 -3.089,-4.358 h -1.752 l 2.263,4.358 z m -4.865,-30.842 v 10.744 l -5.183,14.575 h 2.409 l 2.311,-6.987 c 0.633,-1.915 1.12,-3.456 1.631,-5.222 h 0.049 c 0.462,1.653 1.021,3.307 1.654,5.222 l 2.36,6.987 h 2.409 l -5.499,-14.537 v -10.782 h -2.141" fill="#a31c21" transform="matrix(1.33333 0 0 -1.33333 -206.172 945.08)"/><path d="M324.07813 495.76335h.274l2.12 2.992h-.841zm.981-1.367h-3.231l2.972 5.725h4.316zm-1.446-25.117h.774l.044 10.341 5.148 13.611h-.928l-2.432-7.213c-.536-1.616-1.013-3.055-1.415-4.495l-.14-.5h-1.032l-.192.493c-.508 1.758-.993 3.292-1.622 5.198l-2.156 6.517h-.948l4.899-13.892zm2.14-1.366h-3.508v11.309l-5.466 15.375h3.871l2.465-7.454c.375-1.138.7-2.141 1.007-3.139.249.784.517 1.59.799 2.445l2.749 8.148h3.889l-5.806-15.343v-11.341M343.02313 469.42235c-.78-.601-2.336-1.202-4.331-1.202-4.622 0-8.103 4.508-8.103 12.81 0 7.927 3.481 13.299 8.565 13.299 2.043 0 3.333-.677 3.892-1.128l-.511-2.666c-.802.6-1.945 1.052-3.308 1.052-3.844 0-6.399-3.795-6.399-10.444 0-6.199 2.312-10.18 6.301-10.18 1.29 0 2.604.413 3.455 1.051l.439-2.592" fill="#a31c21" transform="matrix(1.33333 0 0 -1.33333 -206.172 945.08)"/><path d="M339.15413 493.64535c-4.714 0-7.881-5.07-7.881-12.615 0-7.366 2.912-12.126 7.419-12.126 1.598 0 2.855.414 3.583.84l-.199 1.178c-.873-.41-1.914-.643-2.947-.643-4.307 0-6.984 4.163-6.984 10.865 0 6.862 2.714 11.126 7.082 11.126 1 0 1.972-.224 2.822-.641l.243 1.265c-.512.308-1.53.751-3.138.751zm-.462-26.108c-5.337 0-8.786 5.296-8.786 13.493 0 8.364 3.716 13.982 9.248 13.982 2.536 0 3.949-.977 4.321-1.278l.32-.256-.794-4.144-.875.652c-.79.591-1.819.917-2.899.917-3.526 0-5.715-3.739-5.715-9.759 0-5.948 2.1-9.498 5.617-9.498 1.126 0 2.293.351 3.045.915l.898.673.693-4.101-.324-.251c-.843-.649-2.533-1.345-4.749-1.345M347.78713 493.91535v-10.593h7.932v10.593h2.141v-25.319h-2.141v11.87h-7.932v-11.87h-2.117v25.319h2.117" fill="#a31c21" transform="matrix(1.33333 0 0 -1.33333 -206.172 945.08)"/><path d="M356.40313 469.27935h.773v23.952h-.773v-10.592h-9.299v10.592h-.75v-23.952h.75v11.872h9.299zm2.14-1.366h-3.508v11.871h-6.564v-11.871h-3.483v26.684h3.483v-10.592h6.564v10.592h3.508v-26.684M378.14613 469.42235c-.779-.601-2.335-1.202-4.33-1.202-4.623 0-8.103 4.508-8.103 12.81 0 7.927 3.48 13.299 8.565 13.299 2.044 0 3.333-.677 3.892-1.128l-.511-2.666c-.802.6-1.946 1.052-3.309 1.052-3.844 0-6.399-3.795-6.399-10.444 0-6.199 2.312-10.18 6.302-10.18 1.289 0 2.604.413 3.455 1.051l.438-2.592" fill="#a31c21" transform="matrix(1.33333 0 0 -1.33333 -206.172 945.08)"/><path d="M374.27813 493.64535c-4.715 0-7.881-5.07-7.881-12.615 0-7.366 2.912-12.126 7.419-12.126 1.597 0 2.855.414 3.583.84l-.199 1.178c-.873-.41-1.914-.643-2.947-.643-4.308 0-6.984 4.163-6.984 10.865 0 6.862 2.714 11.126 7.081 11.126 1 0 1.972-.224 2.822-.641l.243 1.265c-.512.308-1.529.751-3.137.751zm-.462-26.108c-5.337 0-8.786 5.296-8.786 13.493 0 8.364 3.716 13.982 9.248 13.982 2.535 0 3.948-.977 4.32-1.278l.32-.256-.794-4.144-.874.652c-.79.591-1.82.917-2.9.917-3.526 0-5.715-3.739-5.715-9.759 0-5.948 2.1-9.498 5.618-9.498 1.126 0 2.293.351 3.045.915l.897.673.693-4.101-.323-.251c-.843-.649-2.534-1.345-4.749-1.345M384.51713 468.59635v10.744l-5.183 14.575h2.409l2.311-6.987c.633-1.915 1.12-3.456 1.631-5.222h.049c.462 1.653 1.021 3.307 1.653 5.222l2.361 6.987h2.408l-5.499-14.537v-10.782h-2.14" fill="#a31c21" transform="matrix(1.33333 0 0 -1.33333 -206.172 945.08)"/><path d="M385.20013 469.27935h.775l.044 10.341 5.148 13.611h-.928l-2.432-7.213c-.536-1.616-1.013-3.055-1.415-4.495l-.14-.5h-1.032l-.192.493c-.508 1.758-.994 3.292-1.623 5.198l-2.156 6.517h-.947l4.898-13.892zm2.141-1.366h-3.508v11.309l-5.468 15.375h3.873l2.465-7.454c.375-1.138.7-2.141 1.007-3.139.249.784.516 1.59.799 2.445l2.749 8.148h3.888l-5.805-15.343v-11.341M393.85613 493.91535h2.117v-12.209h.073c.438.977.875 1.879 1.289 2.705l5.013 9.504h2.627l-5.937-10.743 6.4-14.576h-2.507l-5.401 12.434-1.557-2.78v-9.654h-2.117v25.319" fill="#a31c21" transform="matrix(1.33333 0 0 -1.33333 -206.172 945.08)"/><path d="M403.37913 469.27935h1.012l-6.114 13.929 5.54 10.023h-1.058l-4.819-9.139c-.404-.804-.837-1.697-1.27-2.665l-.181-.404h-1.126l-.074.683v11.525h-.75v-23.952h.75v9.149l2.319 4.14zm3.105-1.366h-4.001l-5.031 11.579-.796-1.42v-10.159h-3.483v26.684h3.483v-10.015c.024.045.045.09.068.135l5.212 9.88h4.197l-6.333-11.46 6.684-15.224M407.03913 493.91535h2.117v-22.576h7.007v-2.743h-9.124v25.319" fill="#a31c21" transform="matrix(1.33333 0 0 -1.33333 -206.172 945.08)"/><path d="M407.72313 469.27935h7.757v1.376h-7.007v22.576h-.75zm9.124-1.366h-10.491v26.684h3.483v-22.575h7.008v-4.109M420.63713 493.91535v-25.319h-2.116v25.319h2.116" fill="#a31c21" transform="matrix(1.33333 0 0 -1.33333 -206.172 945.08)"/><path d="M419.20313 469.27935h.75v23.952h-.75zm2.118-1.366h-3.484v26.684h3.484v-26.684M424.04113 472.57835c.948-.902 2.336-1.653 3.796-1.653 2.165 0 3.431 1.766 3.431 4.32 0 2.366-.876 3.719-3.091 5.034-2.676 1.465-4.33 3.606-4.33 7.175 0 3.945 2.116 6.875 5.304 6.875 1.678 0 2.895-.602 3.625-1.24l-.584-2.667c-.535.451-1.63 1.202-3.115 1.202-2.237 0-3.089-2.066-3.089-3.794 0-2.367.998-3.532 3.26-4.884 2.774-1.653 4.185-3.719 4.185-7.438 0-3.906-1.874-7.288-5.741-7.288-1.582 0-3.31.714-4.186 1.616l.535 2.742" fill="#a31c21" transform="matrix(1.33333 0 0 -1.33333 -206.172 945.08)"/><path d="M424.24913 470.08035c.839-.685 2.246-1.176 3.443-1.176 3.733 0 5.058 3.557 5.058 6.604 0 3.278-1.081 5.2-3.851 6.851-2.278 1.36-3.595 2.691-3.595 5.471 0 2.156 1.181 4.477 3.773 4.477 1.071 0 1.969-.331 2.666-.737l.274 1.246c-.546.383-1.48.829-2.866.829-2.721 0-4.621-2.546-4.621-6.191 0-3.041 1.226-5.068 3.975-6.575 2.485-1.476 3.445-3.052 3.445-5.633 0-3.039-1.614-5.004-4.113-5.004-1.129 0-2.303.39-3.342 1.095zm3.443-2.543c-1.711 0-3.634.749-4.676 1.822l-.249.258.843 4.312.902-.858c.966-.916 2.209-1.462 3.325-1.462 2.026 0 2.747 1.879 2.747 3.637 0 2.073-.72 3.238-2.756 4.446-3.132 1.715-4.665 4.258-4.665 7.762 0 4.451 2.462 7.558 5.988 7.558 2.145 0 3.473-.882 4.075-1.409l.304-.267-.913-4.164-.866.728c-.563.475-1.484 1.041-2.674 1.041-2.338 0-2.406-2.793-2.406-3.111 0-1.954.684-2.958 2.928-4.296 3.166-1.888 4.517-4.289 4.517-8.026 0-4.768-2.582-7.971-6.424-7.971M439.44013 491.13535h-4.988v2.78h12.14v-2.78h-5.012v-22.539h-2.14v22.539" fill="#a31c21" transform="matrix(1.33333 0 0 -1.33333 -206.172 945.08)"/><path d="M440.12213 469.27935h.775v22.539h5.011v1.413h-10.773v-1.413h4.987zm2.142-1.366h-3.508v22.538h-4.987v4.146h13.507v-4.146h-5.012v-22.538M453.25613 497.93535c0-.94.462-1.916 1.167-1.916.706 0 1.192.902 1.192 1.991 0 1.09-.486 1.991-1.192 1.991-.729 0-1.167-.977-1.167-2.066zm3.6.037c0-1.878-.997-3.342-2.409-3.342-1.458 0-2.432 1.501-2.432 3.305 0 1.878.924 3.419 2.432 3.419 1.509 0 2.409-1.503 2.409-3.382zm-6.326-4.057v-14.989c0-5.672 1.63-8.076 3.821-8.076 2.432 0 3.989 2.48 3.989 8.076v14.989h2.142v-14.764c0-7.775-2.653-10.968-6.204-10.968-3.358 0-5.888 2.968-5.888 10.819v14.913h2.14" fill="#a31c21" transform="matrix(1.33333 0 0 -1.33333 -206.172 945.08)"/><path d="M454.42313 499.31735c-.171 0-.483-.525-.483-1.381 0-.742.343-1.233.483-1.233.18 0 .509.496.509 1.308 0 .809-.329 1.306-.509 1.306zm-.59-3.855c.373-.195.876-.201 1.269.034-.391-.192-.884-.208-1.269-.034zm.614-1.516c-1.776 0-3.116 1.716-3.116 3.99 0 2.376 1.311 4.1 3.116 4.1 1.821 0 3.092-1.671 3.092-4.065 0-2.295-1.329-4.025-3.092-4.025zm-5.374-.715v-14.23c0-4.623.903-10.135 5.205-10.135 3.559 0 5.52 3.652 5.52 10.285v14.08h-.774v-14.305c0-7.239-2.541-8.759-4.673-8.759-1.683 0-4.504 1.137-4.504 8.759v14.305zm5.205-25.731c-2.455 0-6.572 1.495-6.572 11.501v15.596h3.508v-15.671c0-4.698 1.144-7.392 3.137-7.392 2.876 0 3.305 4.632 3.305 7.392v15.671h3.509v-15.446c0-10.137-4.315-11.651-6.887-11.651M273.67513 623.03435c-13.531 11.473-30.457 9.196-48.701 8.468 5.104 8.641 10.877 12.841 18.92 13.297 4.194.238 8.47-.44 12.67-.999 4.74-.632 6.947 1.361 6.823 5.989-.21 7.866-.412 15.736-.868 23.59-.187 3.22-2.43 4.176-5.155 2.737-1.834-.97-3.225-2.739-4.959-3.943-6.079-4.222-13.921-4.111-19.446.168-5.691 4.407-7.825 12.805-5.024 19.771 2.355 5.858 9.797 10.662 15.958 10.303 6.177-.361 13.88-7.355 15.17-14.037.549-2.844.601-5.784 1.116-11.142 3.539 3.016 5.801 4.251 7.077 6.148 6.47 9.623 15.888 13.834 26.929 14.828 15.591 1.404 30.962.438 45.482-6.153 10.556-4.79 18.883-12.201 24.133-22.579 5.579-11.029 7.13-28.16-8.103-37.826-5.84-3.706-10.908-8.686-16.11-13.328-12.867-11.48-19.914-25.734-20.234-43.165-.048-2.618-.841-5.222-1.649-9.928-3.123 3.553-5.179 5.537-6.81 7.825-3.167 4.442-5.973 9.143-9.149 13.58-7.015 9.8-7.416 16.008-.458 25.74 4.931 6.898 10.555 13.299 15.833 19.951 1.504 1.895 3.092 3.771 4.281 5.861 5.184 9.121 2.374 17.673-7.707 21.097-5.622 1.909-11.879 2.981-17.793 2.779-12.905-.442-18.977-7.129-19.756-20.234-.34-5.722-.513-11.454-.797-17.179-.01-.208-.39-.396-1.673-1.619M407.64913 531.19135c14.851 5.708 24.367 30.255 22.973 43.226-.879 8.177-5.284 10.534-12.55 6.254-15.257-8.99-24.557-22.025-25.31-34.88-.201-17.623 3.165-19.105 14.887-14.6zm-52.045 50.221c-8.313 4.422-13.079 1.643-13.402-7.451-.615-17.384 4.62-32.124 20.071-41.962 4.548-2.895 9.687-5.744 14.168-2.024 2.937 2.439 3.686 7.513 4.653 9.689-1.926 19.843-9.83 33.42-25.49 41.748zm56.739 8.31c7.204 4.582 7.468 11.41.431 16.035-5.153 3.386-11.252 5.79-17.264 7.312-12.311 3.118-24.065.548-34.489-6.519-8.051-5.46-8.015-9.104-1.08-15.702 7.277-6.925 16.455-8.221 25.854-8.86 9.739-.379 18.589 2.673 26.548 7.734zm-24.911-70.774c-24.191-.558-52.021 20.02-52.25 51.108-.205 27.925 27.495 51.098 50.915 50.539 27.475-.655 52.044-20.003 51.562-54.111-.372-26.345-24.042-48.034-50.227-47.536" fill="#a31c21" transform="matrix(1.33333 0 0 -1.33333 -206.172 945.08)"/><path d="m 199.14513,582.34535 c -8.823,6.202 -15.515,2.793 -15.596,-7.916 -0.123,-15.991 7.614,-31.921 23.177,-40.39 10.593,-5.765 14.991,-2.791 14.976,7.204 0.295,19.588 -9.172,31.693 -22.557,41.102 z m 45.771,-50.489 c 16.15,4.455 30.981,29.01 27.523,45.57 -1.546,7.404 -5.74,9.685 -12.513,6.355 -16.321,-8.024 -24.705,-21.567 -26.588,-35.412 -0.672,-15.016 2.953,-18.893 11.578,-16.513 z m 8.008,59.581 c 7.35,5.555 7.651,12.134 0.685,18.02 -1.828,1.544 -3.857,3.123 -6.07,3.892 -15.91,5.531 -31.411,5.26 -45.964,-4.17 -6.381,-4.134 -6.762,-11.456 -0.498,-15.566 8.127,-5.331 16.698,-9.946 25.772,-9.296 10.826,-0.022 20.164,2.651 26.075,7.12 z m -26.036,31.367 c 23.321,2.863 52.702,-23.645 51.586,-50.096 -1.265,-30.015 -22.735,-49.783 -51.972,-50.987 -23.465,-0.966 -50.265,18.11 -50.485,51.206 -0.186,28.076 25.539,51.068 50.871,49.877" fill="#a31c21" transform="matrix(1.33333 0 0 -1.33333 -206.172 945.08)"/></svg>